<svg width="63" height="63" viewBox="0 0 63 63" fill="none" xmlns="http://www.w3.org/2000/svg">
<g clip-path="url(#clip0_47_9851)">
<path d="M37.6944 52.7623C37.3658 52.6757 37.0627 52.5115 36.8107 52.2836L27.8109 43.9982L15.8742 46.6737C15.4864 46.7613 15.0818 46.7384 14.7063 46.6076C14.3309 46.4767 13.9997 46.2431 13.7504 45.9334C13.5011 45.6237 13.3437 45.2502 13.296 44.8555C13.2484 44.4607 13.3125 44.0606 13.481 43.7004L18.63 32.6943L12.3733 22.218C12.18 21.884 12.0813 21.5037 12.0878 21.1178C12.0943 20.732 12.2057 20.3552 12.4101 20.0279C12.6269 19.695 12.9326 19.4295 13.2925 19.2615C13.6525 19.0935 14.0524 19.0298 14.4467 19.0776L26.603 20.5089L34.5765 11.3596C34.8375 11.0576 35.1784 10.8352 35.56 10.718C35.9416 10.6008 36.3485 10.5934 36.734 10.6967C37.1196 10.8 37.4683 11.0099 37.7402 11.3022C38.012 11.5945 38.196 11.9575 38.2711 12.3496L40.6688 24.2558L51.912 29.0944C52.2775 29.2502 52.5919 29.5053 52.8197 29.8308C53.0474 30.1562 53.1794 30.539 53.2007 30.9357C53.214 31.3213 53.1221 31.7034 52.9348 32.0408C52.7475 32.3782 52.4719 32.6582 52.1375 32.8508L41.4809 38.7952L40.437 50.9013C40.4072 51.3057 40.2622 51.6932 40.0193 52.0179C39.7764 52.3426 39.4456 52.5911 39.066 52.7339C38.6245 52.8947 38.1422 52.9048 37.6944 52.7623Z" fill="url(#paint0_linear_47_9851)"/>
</g>
<defs>
<linearGradient id="paint0_linear_47_9851" x1="36.7648" y1="10.7049" x2="26.3101" y2="49.7227" gradientUnits="userSpaceOnUse">
<stop stop-color="#FFF6DC"/>
<stop offset="1" stop-color="#FFC107"/>
</linearGradient>
<clipPath id="clip0_47_9851">
<rect width="51" height="51" fill="white" transform="translate(13.1998) rotate(15)"/>
</clipPath>
</defs>
</svg>
