<svg width="23" height="18" viewBox="0 0 23 18" fill="none" xmlns="http://www.w3.org/2000/svg">
<g clip-path="url(#clip0_8249_618)">
<path d="M21.9217 16.2918L20.3744 12.6H18.6765L19.6194 16.2H3.01859L3.96148 12.6H2.2636L0.715128 16.2918C0.322351 17.2314 1.01848 18 2.2636 18H20.3744C21.6195 18 22.3156 17.2314 21.9217 16.2918ZM16.9786 4.5C16.9786 3.30653 16.3823 2.16193 15.3209 1.31802C14.2596 0.474106 12.82 0 11.319 0C9.81796 0 8.37841 0.474106 7.31703 1.31802C6.25565 2.16193 5.65937 3.30653 5.65937 4.5C5.65937 8.7975 11.319 13.5 11.319 13.5C11.319 13.5 16.9786 8.7975 16.9786 4.5ZM8.26279 4.554C8.26279 3.2121 9.63015 2.1249 11.319 2.1249C12.1294 2.1249 12.9066 2.38087 13.4796 2.8365C14.0527 3.29213 14.3746 3.91009 14.3746 4.55445C14.3746 5.19881 14.0527 5.81677 13.4796 6.2724C12.9066 6.72803 12.1294 6.984 11.319 6.984C10.5084 6.984 9.73108 6.72798 9.15793 6.27227C8.58478 5.81656 8.26279 5.19848 8.26279 4.554V4.554Z" fill="#4E4B66"/>
</g>
<defs>
<clipPath id="clip0_8249_618">
<rect width="22.6385" height="18" fill="white"/>
</clipPath>
</defs>
</svg>
