<svg width="21" height="5" viewBox="0 0 21 5" fill="none" xmlns="http://www.w3.org/2000/svg">
<path d="M10.5013 4.66667C11.79 4.66667 12.8346 3.622 12.8346 2.33333C12.8346 1.04467 11.79 0 10.5013 0C9.21264 0 8.16797 1.04467 8.16797 2.33333C8.16797 3.622 9.21264 4.66667 10.5013 4.66667Z" fill="#5F2EEA"/>
<path d="M18.6654 4.66667C19.954 4.66667 20.9987 3.622 20.9987 2.33333C20.9987 1.04467 19.954 0 18.6654 0C17.3767 0 16.332 1.04467 16.332 2.33333C16.332 3.622 17.3767 4.66667 18.6654 4.66667Z" fill="#5F2EEA"/>
<path d="M2.33333 4.66667C3.622 4.66667 4.66667 3.622 4.66667 2.33333C4.66667 1.04467 3.622 0 2.33333 0C1.04467 0 0 1.04467 0 2.33333C0 3.622 1.04467 4.66667 2.33333 4.66667Z" fill="#5F2EEA"/>
</svg>
