<svg width="100" height="47" viewBox="0 0 100 47" fill="none" xmlns="http://www.w3.org/2000/svg">
<path d="M40.5 17.8811C41.4644 18.4143 48.4457 22.4386 53.41 19.337C58.3742 16.2353 58.1003 10.8916 58.1003 8.443C58.55 7.5009 59.5 7.02195 59.5 4.4719C58.5669 5.3339 57.6394 5.6272 56.7175 5.3518C55.8144 3.97478 54.5718 3.36573 52.9897 3.52467C50.6167 3.76307 49.7485 6.09125 50.004 9.10335C46.345 10.9537 43.4758 7.762 41.9971 5.3518C41.503 7.24995 41.0267 9.5288 41.9971 12.0497C42.6441 13.7303 44.1992 15.1512 46.6627 16.3123C44.1661 17.6654 42.1119 18.1883 40.5 17.8811Z" stroke="black" stroke-opacity="0.85" stroke-width="2" stroke-linejoin="round"/>
<path d="M35.2397 37.4545V38.3068H31.8477V37.4545H35.2397ZM32.8363 35.8864H33.842V42.125C33.842 42.4091 33.8832 42.6222 33.9656 42.7642C34.0508 42.9034 34.1587 42.9972 34.2894 43.0455C34.4229 43.0909 34.5636 43.1136 34.7113 43.1136C34.8221 43.1136 34.913 43.108 34.984 43.0966C35.055 43.0824 35.1119 43.071 35.1545 43.0625L35.359 43.9659C35.2908 43.9915 35.1957 44.017 35.0735 44.0426C34.9513 44.071 34.7965 44.0852 34.609 44.0852C34.3249 44.0852 34.0465 44.0241 33.7738 43.902C33.5039 43.7798 33.2795 43.5938 33.1005 43.3438C32.9244 43.0938 32.8363 42.7784 32.8363 42.3977V35.8864ZM38.2354 44L36.2411 37.4545H37.2979L38.7127 42.4659H38.7809L40.1786 37.4545H41.2525L42.6332 42.4489H42.7013L44.1161 37.4545H45.1729L43.1786 44H42.19L40.7582 38.9716H40.6559L39.2241 44H38.2354ZM46.5025 44V37.4545H47.5082V44H46.5025ZM47.0138 36.3636C46.8178 36.3636 46.6488 36.2969 46.5067 36.1634C46.3675 36.0298 46.2979 35.8693 46.2979 35.6818C46.2979 35.4943 46.3675 35.3338 46.5067 35.2003C46.6488 35.0668 46.8178 35 47.0138 35C47.2099 35 47.3775 35.0668 47.5167 35.2003C47.6587 35.3338 47.7298 35.4943 47.7298 35.6818C47.7298 35.8693 47.6587 36.0298 47.5167 36.1634C47.3775 36.2969 47.2099 36.3636 47.0138 36.3636ZM52.1967 37.4545V38.3068H48.8047V37.4545H52.1967ZM49.7933 35.8864H50.799V42.125C50.799 42.4091 50.8402 42.6222 50.9226 42.7642C51.0078 42.9034 51.1158 42.9972 51.2464 43.0455C51.38 43.0909 51.5206 43.1136 51.6683 43.1136C51.7791 43.1136 51.87 43.108 51.9411 43.0966C52.0121 43.0824 52.0689 43.071 52.1115 43.0625L52.3161 43.9659C52.2479 43.9915 52.1527 44.017 52.0305 44.0426C51.9084 44.071 51.7536 44.0852 51.5661 44.0852C51.282 44.0852 51.0036 44.0241 50.7308 43.902C50.4609 43.7798 50.2365 43.5938 50.0575 43.3438C49.8814 43.0938 49.7933 42.7784 49.7933 42.3977V35.8864ZM56.5561 37.4545V38.3068H53.1641V37.4545H56.5561ZM54.1527 35.8864H55.1584V42.125C55.1584 42.4091 55.1996 42.6222 55.282 42.7642C55.3672 42.9034 55.4751 42.9972 55.6058 43.0455C55.7393 43.0909 55.88 43.1136 56.0277 43.1136C56.1385 43.1136 56.2294 43.108 56.3004 43.0966C56.3714 43.0824 56.4283 43.071 56.4709 43.0625L56.6754 43.9659C56.6072 43.9915 56.5121 44.017 56.3899 44.0426C56.2678 44.071 56.1129 44.0852 55.9254 44.0852C55.6413 44.0852 55.3629 44.0241 55.0902 43.902C54.8203 43.7798 54.5959 43.5938 54.4169 43.3438C54.2408 43.0938 54.1527 42.7784 54.1527 42.3977V35.8864ZM60.7429 44.1364C60.1122 44.1364 59.5682 43.9972 59.1108 43.7188C58.6562 43.4375 58.3054 43.0455 58.0582 42.5426C57.8139 42.0369 57.6918 41.4489 57.6918 40.7784C57.6918 40.108 57.8139 39.517 58.0582 39.0057C58.3054 38.4915 58.6491 38.0909 59.0895 37.804C59.5327 37.5142 60.0497 37.3693 60.6406 37.3693C60.9815 37.3693 61.3182 37.4261 61.6506 37.5398C61.983 37.6534 62.2855 37.8381 62.5582 38.0938C62.831 38.3466 63.0483 38.6818 63.2102 39.0994C63.3722 39.517 63.4531 40.0312 63.4531 40.642V41.0682H58.4077V40.1989H62.4304C62.4304 39.8295 62.3565 39.5 62.2088 39.2102C62.0639 38.9205 61.8565 38.6918 61.5866 38.5241C61.3196 38.3565 61.0043 38.2727 60.6406 38.2727C60.2401 38.2727 59.8935 38.3722 59.6009 38.571C59.3111 38.767 59.0881 39.0227 58.9318 39.3381C58.7756 39.6534 58.6974 39.9915 58.6974 40.3523V40.9318C58.6974 41.4261 58.7827 41.8452 58.9531 42.1889C59.1264 42.5298 59.3665 42.7898 59.6733 42.9688C59.9801 43.1449 60.3366 43.233 60.7429 43.233C61.0071 43.233 61.2457 43.196 61.4588 43.1222C61.6747 43.0455 61.8608 42.9318 62.017 42.7812C62.1733 42.6278 62.294 42.4375 62.3793 42.2102L63.3509 42.483C63.2486 42.8125 63.0767 43.1023 62.8352 43.3523C62.5938 43.5994 62.2955 43.7926 61.9403 43.9318C61.5852 44.0682 61.1861 44.1364 60.7429 44.1364ZM64.983 44V37.4545H65.9545V38.4432H66.0227C66.142 38.1193 66.358 37.8565 66.6705 37.6548C66.983 37.4531 67.3352 37.3523 67.7273 37.3523C67.8011 37.3523 67.8935 37.3537 68.0043 37.3565C68.1151 37.3594 68.1989 37.3636 68.2557 37.3693V38.392C68.2216 38.3835 68.1435 38.3707 68.0213 38.3537C67.902 38.3338 67.7756 38.3239 67.642 38.3239C67.3239 38.3239 67.0398 38.3906 66.7898 38.5241C66.5426 38.6548 66.3466 38.8366 66.2017 39.0696C66.0597 39.2997 65.9886 39.5625 65.9886 39.858V44H64.983Z" fill="black" fill-opacity="0.85"/>
</svg>
